Normalized EMG Linear Envelopes
nRows=119
nColumns=4

endheader
time	 med_gas_r	  soleus_r	 tib_ant_r	
4.35758	  0.131956	  0.114049	  0.035274	
4.39085	  0.129557	  0.113800	  0.035595	
4.42411	  0.127665	  0.113078	  0.035847	
4.45738	  0.126934	  0.111849	  0.035977	
4.49064	  0.127391	  0.110275	  0.035868	
4.5239	  0.129304	  0.108553	  0.035611	
4.55717	  0.132970	  0.106965	  0.035353	
4.59043	  0.137460	  0.105692	  0.035086	
4.6237	  0.140727	  0.105218	  0.034878	
4.65696	  0.141074	  0.105758	  0.034821	
4.69022	  0.140438	  0.107027	  0.034979	
4.72349	  0.141132	  0.108578	  0.035323	
4.75675	  0.144337	  0.110058	  0.035783	
4.79002	  0.150258	  0.111937	  0.036325	
4.82328	  0.158342	  0.114222	  0.036863	
4.85654	  0.166911	  0.116703	  0.037306	
4.88981	  0.172941	  0.119182	  0.037564	
4.92307	  0.176265	  0.121323	  0.037669	
4.95634	  0.179143	  0.122947	  0.037727	
4.9896	  0.182752	  0.123933	  0.037847	
5.02286	  0.187521	  0.124298	  0.038096	
5.05613	  0.193246	  0.124154	  0.038522	
5.08939	  0.198692	  0.124015	  0.039320	
5.12266	  0.203345	  0.124610	  0.040602	
5.15592	  0.208349	  0.126078	  0.042200	
5.18918	  0.212713	  0.128644	  0.043822	
5.22245	  0.213235	  0.132354	  0.045363	
5.25571	  0.207551	  0.136352	  0.046903	
5.28898	  0.199248	  0.139282	  0.048637	
5.32224	  0.192627	  0.140963	  0.050730	
5.3555	  0.190093	  0.141816	  0.053481	
5.38877	  0.191220	  0.142665	  0.057364	
5.42203	  0.193611	  0.143756	  0.062820	
5.4553	  0.196931	  0.145010	  0.070373	
5.48856	  0.202388	  0.146332	  0.080455	
5.52182	  0.210271	  0.147174	  0.093010	
5.55509	  0.219883	  0.146986	  0.107377	
5.58835	  0.231748	  0.145711	  0.123023	
5.62162	  0.247742	  0.143892	  0.138622	
5.65488	  0.266559	  0.141660	  0.152676	
5.68814	  0.283102	  0.139149	  0.164312	
5.72141	  0.293121	  0.136505	  0.172719	
5.75467	  0.295963	  0.133964	  0.179362	
5.78794	  0.294916	  0.131919	  0.186910	
5.8212	  0.294065	  0.130385	  0.195914	
5.85446	  0.294341	  0.129459	  0.205360	
5.88773	  0.296481	  0.129330	  0.214594	
5.92099	  0.300098	  0.130231	  0.222309	
5.95426	  0.301993	  0.132291	  0.227380	
5.98752	  0.298598	  0.135009	  0.230770	
6.02078	  0.294715	  0.137801	  0.233569	
6.05405	  0.296280	  0.140758	  0.235128	
6.08731	  0.304837	  0.143990	  0.233370	
6.12058	  0.316845	  0.147212	  0.229868	
6.15384	  0.326063	  0.150386	  0.227819	
6.1871	  0.329387	  0.153700	  0.228353	
6.22037	  0.330239	  0.157113	  0.231075	
6.25363	  0.331734	  0.160747	  0.237693	
6.2869	  0.333670	  0.164165	  0.250144	
6.32016	  0.336779	  0.166963	  0.267740	
6.35342	  0.338874	  0.168581	  0.288976	
6.38669	  0.334725	  0.168042	  0.313009	
6.41995	  0.324083	  0.164619	  0.339008	
6.45322	  0.310801	  0.159226	  0.366416	
6.48648	  0.300693	  0.153695	  0.395727	
6.51974	  0.297576	  0.149300	  0.424057	
6.55301	  0.301673	  0.146787	  0.446427	
6.58627	  0.309821	  0.145731	  0.460224	
6.61954	  0.318750	  0.145666	  0.465700	
6.6528	  0.324782	  0.146468	  0.467616	
6.68606	  0.326126	  0.147885	  0.467898	
6.71933	  0.325063	  0.148834	  0.465535	
6.75259	  0.325321	  0.148948	  0.462238	
6.78586	  0.327737	  0.148151	  0.457792	
6.81912	  0.328962	  0.145561	  0.450985	
6.85238	  0.329929	  0.141030	  0.441303	
6.88565	  0.333764	  0.136150	  0.428658	
6.91891	  0.340617	  0.132540	  0.411750	
6.95218	  0.346400	  0.131038	  0.391335	
6.98544	  0.348380	  0.131519	  0.369516	
7.0187	  0.351184	  0.133261	  0.348889	
7.05197	  0.358425	  0.136114	  0.332669	
7.08523	  0.368009	  0.140664	  0.322049	
7.1185	  0.376635	  0.147348	  0.314771	
7.15176	  0.380945	  0.155581	  0.311470	
7.18502	  0.381602	  0.164438	  0.312548	
7.21829	  0.378423	  0.173170	  0.315206	
7.25155	  0.371288	  0.180229	  0.317655	
7.28482	  0.360621	  0.185166	  0.321157	
7.31808	  0.350624	  0.190020	  0.323592	
7.35134	  0.344652	  0.197699	  0.321984	
7.38461	  0.342921	  0.210537	  0.316449	
7.41787	  0.342806	  0.229615	  0.307942	
7.45114	  0.344532	  0.254719	  0.296129	
7.4844	  0.349119	  0.283620	  0.282794	
7.51766	  0.357040	  0.312294	  0.270656	
7.55093	  0.365595	  0.332963	  0.262746	
7.58419	  0.372957	  0.340080	  0.261055	
7.61746	  0.380006	  0.330659	  0.266034	
7.65072	  0.387253	  0.305663	  0.276160	
7.68398	  0.390638	  0.272790	  0.289461	
7.71725	  0.386068	  0.239639	  0.302074	
7.75051	  0.378016	  0.210504	  0.312719	
7.78378	  0.371782	  0.187589	  0.321043	
7.81704	  0.367446	  0.172647	  0.324989	
7.8503	  0.363064	  0.166230	  0.325064	
7.88357	  0.362467	  0.168173	  0.323529	
7.91683	  0.368026	  0.178493	  0.320440	
7.9501	  0.376969	  0.196253	  0.315989	
7.98336	  0.383712	  0.219448	  0.310996	
8.01662	  0.389009	  0.245369	  0.304826	
8.04989	  0.396473	  0.271909	  0.296605	
8.08315	  0.405412	  0.300367	  0.288061	
8.11642	  0.408999	  0.330806	  0.281852	
8.14968	  0.405330	  0.360067	  0.277258	
8.18294	  0.400829	  0.383750	  0.270758	
8.21621	  0.398229	  0.397632	  0.261926	
8.24947	  0.394867	  0.396435	  0.253245	
8.28274	  0.388226	  0.384420	  0.246099	
